Coordinates
version=1
nRows=22
nColumns=21
inDegrees=yes

Units are S.I. units (second, meters, Newtons, ...)
If the header above contains a line with 'inDegrees', this indicates whether rotational values are in degrees (yes) or radians (no).

endheader
time	sternoclavicular_r2	sternoclavicular_r3	unrotscap_r3	unrotscap_r2	acromioclavicular_r2	acromioclavicular_r3	acromioclavicular_r1	unrothum_r1	unrothum_r3	unrothum_r2	elv_angle	shoulder_elev	shoulder1_r2	shoulder_rot	elbow_flexion	pro_sup	deviation	flexion	wrist_hand_r1	wrist_hand_r3
      1.00502513	    -10.72831548	      4.54400809	     -4.54400809	     10.72831548	     -2.17226565	     17.55548690	      7.89107054	     -7.89107054	    -17.55548690	      2.17226565	    125.45197178	     44.33178277	   -125.45197178	     19.95133453	      0.89743492	      0.00000000	      0.00000000	     -0.00000000	     -0.00000000	      0.00000000
      1.02512563	    -10.75991843	      4.55739361	     -4.55739361	     10.75991843	     -2.17866461	     17.60720100	      7.91431567	     -7.91431567	    -17.60720100	      2.17866461	    125.50565340	     44.46237319	   -125.50565340	     19.95132094	      0.89317664	      0.00000000	      0.00000000	     -0.00000000	     -0.00000000	      0.00000000
      1.04522613	    -10.79252059	      4.57120234	     -4.57120234	     10.79252059	     -2.18526588	     17.66055019	      7.93829576	     -7.93829576	    -17.66055019	      2.18526588	    125.56073988	     44.59709257	   -125.56073988	     19.95145487	      0.88863879	      0.00000000	      0.00000000	     -0.00000000	     -0.00000000	      0.00000000
      1.06532663	    -10.82675180	      4.58570107	     -4.58570107	     10.82675180	     -2.19219701	     17.71656508	      7.96347407	     -7.96347407	    -17.71656508	      2.19219701	    125.61812668	     44.73854351	   -125.61812668	     19.93423351	      0.87907521	      0.00000000	      0.00000000	     -0.00000000	     -0.00000000	      0.00000000
      1.08542714	    -10.86133819	      4.60035023	     -4.60035023	     10.86133819	     -2.19920005	     17.77316120	      7.98891364	     -7.98891364	    -17.77316120	      2.19920005	    125.67616657	     44.88146219	   -125.67616657	     19.93300549	      0.87417987	      0.00000000	      0.00000000	     -0.00000000	     -0.00000000	      0.00000000
      1.10552764	    -10.89691838	      4.61542032	     -4.61542032	     10.89691838	     -2.20640431	     17.83138353	      8.01508418	     -8.01508418	    -17.83138353	      2.20640431	    125.73563654	     45.02848743	   -125.73563654	     19.93172851	      0.86919123	      0.00000000	      0.00000000	     -0.00000000	     -0.00000000	      0.00000000
      1.12562814	    -10.93349928	      4.63091426	     -4.63091426	     10.93349928	     -2.21381120	     17.89124339	      8.04199077	     -8.04199077	    -17.89124339	      2.21381120	    125.79651489	     45.17964782	   -125.79651489	     19.93039451	      0.86406472	      0.00000000	      0.00000000	     -0.00000000	     -0.00000000	      0.00000000
      1.14572864	    -10.97108349	      4.64683316	     -4.64683316	     10.97108349	     -2.22142124	     17.95274504	      8.06963534	     -8.06963534	    -17.95274504	      2.22142124	    125.85878853	     45.33495412	   -125.85878853	     19.92900095	      0.85880285	      0.00000000	      0.00000000	     -0.00000000	     -0.00000000	      0.00000000
      1.16582915	    -11.00967266	      4.66317771	     -4.66317771	     11.00967266	     -2.22923476	     18.01589118	      8.09801909	     -8.09801909	    -18.01589118	      2.22923476	    125.92244451	     45.49441314	   -125.92244451	     19.92754514	      0.85341317	      0.00000000	      0.00000000	     -0.00000000	     -0.00000000	      0.00000000
      1.18592965	    -11.04926894	      4.67994883	     -4.67994883	     11.04926894	     -2.23725220	     18.08068533	      8.12714362	     -8.12714362	    -18.08068533	      2.23725220	    125.98746758	     45.65803380	   -125.98746758	     19.92602402	      0.84789347	      0.00000000	      0.00000000	     -0.00000000	     -0.00000000	      0.00000000
      1.20603015	    -11.08987369	      4.69714708	     -4.69714708	     11.08987369	     -2.24547384	     18.14712969	      8.15700990	     -8.15700990	    -18.14712969	      2.24547384	    126.05384273	     45.82582163	   -126.05384273	     19.92443432	      0.84224504	      0.00000000	      0.00000000	     -0.00000000	     -0.00000000	      0.00000000
      1.22613065	    -11.13148779	      4.71477285	     -4.71477285	     11.13148779	     -2.25389985	     18.21522573	      8.18761860	     -8.18761860	    -18.21522573	      2.25389985	    126.12155482	     45.99778034	   -126.12155482	     19.92277245	      0.83646906	      0.00000000	      0.00000000	     -0.00000000	     -0.00000000	      0.00000000
      1.24623116	    -11.17411181	      4.73282637	     -4.73282637	     11.17411181	     -2.26253034	     18.28497437	      8.21897014	     -8.21897014	    -18.28497437	      2.26253034	    126.19058879	     46.17391226	   -126.19058879	     19.92103444	      0.83056556	      0.00000000	      0.00000000	     -0.00000000	     -0.00000000	      0.00000000
      1.26633166	    -11.21774605	      4.75130778	     -4.75130778	     11.21774605	     -2.27136539	     18.35637611	      8.25106473	     -8.25106473	    -18.35637611	      2.27136539	    126.26093005	     46.35421864	   -126.26093005	     19.91921589	      0.82453291	      0.00000000	      0.00000000	     -0.00000000	     -0.00000000	      0.00000000
      1.28643216	    -11.26239063	      4.77021711	     -4.77021711	     11.26239063	     -2.28040501	     18.42943113	      8.28390246	     -8.28390246	    -18.42943113	      2.28040501	    126.33256487	     46.53869995	   -126.33256487	     19.91731189	      0.81836727	      0.00000000	      0.00000000	     -0.00000000	     -0.00000000	      0.00000000
      1.30653266	    -11.30804557	      4.78955439	     -4.78955439	     11.30804557	     -2.28964920	     18.50413947	      8.31748334	     -8.31748334	    -18.50413947	      2.28964920	    126.40548083	     46.72735628	   -126.40548083	     19.91531696	      0.81206208	      0.00000000	      0.00000000	     -0.00000000	     -0.00000000	      0.00000000
      1.32663317	    -11.35279321	      4.80850738	     -4.80850738	     11.35279321	     -2.29870969	     18.57736314	      8.35039688	     -8.35039688	    -18.57736314	      2.29870969	    126.48299260	     46.91226348	   -126.48299260	     19.92554577	      0.81886972	      0.00000000	      0.00000000	     -0.00000000	     -0.00000000	      0.00000000
      1.34673367	    -11.40061507	      4.82876246	     -4.82876246	     11.40061507	     -2.30839264	     18.65561736	      8.38557161	     -8.38557161	    -18.65561736	      2.30839264	    126.55902221	     47.10987402	   -126.55902221	     19.92356384	      0.81145139	      0.00000000	      0.00000000	     -0.00000000	     -0.00000000	      0.00000000
      1.36683417	    -11.44945467	      4.84944861	     -4.84944861	     11.44945467	     -2.31828167	     18.73553699	      8.42149493	     -8.42149493	    -18.73553699	      2.31828167	    126.63639232	     47.31169010	   -126.63639232	     19.92132875	      0.80381645	      0.00000000	      0.00000000	     -0.00000000	     -0.00000000	      0.00000000
      1.38693467	    -11.49935373	      4.87058350	     -4.87058350	     11.49935373	     -2.32838522	     18.81719030	      8.45819753	     -8.45819753	    -18.81719030	      2.32838522	    126.71539794	     47.51788414	   -126.71539794	     19.91893886	      0.79572778	      0.00000000	      0.00000000	     -0.00000000	     -0.00000000	      0.00000000
      1.40703518	    -11.55203305	      4.89289597	     -4.89289597	     11.55203305	     -2.33905171	     18.90339312	      8.49694511	     -8.49694511	    -18.90339312	      2.33905171	    126.78766064	     47.73556678	   -126.78766064	     19.90548325	      0.77209077	      0.00000000	      0.00000000	     -0.00000000	     -0.00000000	      0.00000000
      1.42713568	    -11.60356652	      4.91472312	     -4.91472312	     11.60356652	     -2.34948619	     18.98772091	      8.53484987	     -8.53484987	    -18.98772091	      2.34948619	    126.86791584	     47.94851452	   -126.86791584	     19.90316685	      0.76569672	      0.00000000	      0.00000000	     -0.00000000	     -0.00000000	      0.00000000
